# xmcd
#
# Track frame offsets: 
#        150
#        19905
#        37246
#        55190
#        84122
#        107879
#        128644
#        150290
#        177230
#        196452
#        224820
#        246369
#        274100
#        296032
#
# Disc length: 4250 seconds
#
# Revision: 0
# Processed by: cddbd v1.5.2PL0 Copyright (c) Steve Scherf et al.
# Submitted via: ExactAudioCopy v0.95a4
#
DISCID=ce10980e
DTITLE=Navajo - Tatanka vol.4
DYEAR=1900
DGENRE=Indian
TTITLE0=Mi Negrita
TTITLE1=Night Bird
TTITLE2=Rain Dance
TTITLE3=Wayrapa - Muspuynin
TTITLE4=Tatanka
TTITLE5=Huakcha Nahui
TTITLE6=Kushi Tushukuy
TTITLE7=Riding Storm
TTITLE8=Move Your Heart
TTITLE9=Amanecer
TTITLE10=Hey Heya Heya
TTITLE11=Five Spirits
TTITLE12=Allin Qampy
TTITLE13=Ukamampi
EXTD=
EXTT0=
EXTT1=
EXTT2=
EXTT3=
EXTT4=
EXTT5=
EXTT6=
EXTT7=
EXTT8=
EXTT9=
EXTT10=
EXTT11=
EXTT12=
EXTT13=
PLAYORDER=
